<svg width="1193" height="530" viewBox="0 0 1193 530" fill="none" xmlns="http://www.w3.org/2000/svg">
<path d="M848 2V42M828 22H868M833.858 7.85785L862.142 36.1421M862.142 7.85785L833.858 36.1421" stroke="#FEFEFE" stroke-width="3" stroke-linecap="round"/>
<path d="M1126.94 106.356C1108.38 99.4968 1053.89 95.8653 1002.23 134.198C950.566 172.531 974.379 207.232 1019.58 231.442C1064.79 255.652 1150.76 266.95 1184.26 207.232C1217.76 147.514 1145.51 113.216 1126.94 106.356Z" fill="#F7AF1C"/>
<circle r="17.5" transform="matrix(-1 0 0 1 983 135)" stroke="#0042C6" stroke-width="3" stroke-linejoin="round" stroke-dasharray="10 5"/>
<path d="M902.626 241.541C903.454 240.106 905.289 239.614 906.724 240.443L925.777 251.443C927.211 252.271 927.703 254.106 926.875 255.541L915.375 275.459C914.546 276.894 912.711 277.386 911.277 276.557L892.224 265.557C890.789 264.729 890.298 262.894 891.126 261.459L902.626 241.541Z" fill="#35C69B"/>
<path d="M63.9032 410.272L3.22098 487.002C1.2619 489.479 0.943541 492.877 2.40837 495.675L10.824 511.749C12.0678 514.125 14.4192 515.72 17.0866 515.996L145.266 529.283C149.233 529.694 152.897 527.12 153.856 523.248L164.497 480.263C164.827 478.932 164.809 477.539 164.445 476.217L153.356 435.939C152.627 433.29 150.589 431.2 147.959 430.405L72.4944 407.577C69.349 406.625 65.9417 407.694 63.9032 410.272Z" fill="#0042C6"/>
<path d="M70 402L151.107 426.169C153.741 426.954 155.788 429.036 156.527 431.683L165 462" stroke="#FEFEFE" stroke-width="3" stroke-linecap="round"/>
<path d="M1059.03 291.102C1063.93 288.293 1078.29 286.807 1091.91 302.5C1105.53 318.193 1099.25 332.4 1087.34 342.311C1075.42 352.223 1052.76 356.848 1043.92 332.4C1035.09 307.951 1054.14 293.91 1059.03 291.102Z" fill="#0042C6"/>
<path d="M1061.71 334.801L1085.88 354.45C1087.37 355.664 1086.99 358.04 1085.19 358.726L1056.09 369.835C1054.29 370.521 1052.43 369.004 1052.73 367.104L1057.66 336.345C1057.97 334.445 1060.21 333.587 1061.71 334.801Z" stroke="#FEFEFE" stroke-width="3" stroke-linecap="round" stroke-linejoin="round"/>
</svg>
