<svg width="1920" height="1080" viewBox="0 0 1920 1080" fill="none" xmlns="http://www.w3.org/2000/svg">
<path d="M161.82 633.198C97.2238 613.069 38.6971 736.135 17.5085 800.183C3.55896 841.632 17.5083 965.08 -38.5258 992.033C-112.584 1027.66 -8.02603 1184.25 57.2295 1184.25C122.485 1184.25 134.112 1111.9 184.903 1097.01C235.695 1082.11 318.312 1128.22 355.196 1115.45C389.452 1103.59 409.784 1030.42 455.597 1024.93C512.865 1018.06 533.48 962.595 473.923 932.857C414.366 903.12 467.051 877.958 398.331 859.658C329.612 841.358 302.123 887.108 235.695 877.958C169.265 868.808 242.566 658.36 161.82 633.198Z" fill="#0042C6"/>
</svg>
