<svg width="1920" height="1080" viewBox="0 0 1920 1080" fill="none" xmlns="http://www.w3.org/2000/svg">
<path d="M161.82 633.198C97.2238 613.069 38.6971 736.135 17.5085 800.183C3.55896 841.632 17.5083 965.08 -38.5258 992.033C-112.584 1027.66 -8.02603 1184.25 57.2295 1184.25C122.485 1184.25 134.112 1111.9 184.903 1097.01C235.695 1082.11 318.312 1128.22 355.196 1115.45C389.452 1103.59 409.784 1030.42 455.597 1024.93C512.865 1018.06 533.48 962.595 473.923 932.857C414.366 903.12 467.051 877.958 398.331 859.658C329.612 841.358 302.123 887.108 235.695 877.958C169.265 868.808 242.566 658.36 161.82 633.198Z" fill="#0042C6"/>
<path d="M442.45 902.999C499.09 831.424 530.491 773.921 516.816 761.26C498.347 744.163 404.665 815.321 307.571 920.198C210.478 1025.08 146.739 1123.95 165.206 1141.05C179.999 1154.75 245.16 1109.84 256.073 1098.79" stroke="#F7AF1C" stroke-width="6" stroke-linecap="round"/> --> -->
<path d="M1788.21 878.679C1745.87 892.727 1644.8 963.042 1607.81 1103.29C1570.81 1243.54 1661.61 1271.13 1775.3 1250.14C1889 1229.14 2056.29 1128.01 2031.19 975.66C2006.09 823.314 1830.57 864.619 1788.21 878.679Z" fill="#35C69B"/> -->
<path d="M-35.2341 834.16L-61.8001 987.92C-62.6577 992.884 -60.5147 997.889 -56.33 1000.69L-32.2887 1016.81C-28.7353 1019.19 -24.2249 1019.63 -20.2768 1017.98L169.465 938.932C175.337 936.485 178.51 930.086 176.903 923.93L159.06 855.586C158.508 853.47 157.421 851.532 155.904 849.957L109.674 801.965C106.633 798.808 102.186 797.433 97.894 798.323L-25.2487 823.837C-30.3813 824.901 -34.3416 828.995 -35.2341 834.16Z" fill="#E55511"/>
<path d="M-26.2505 804.389L105.821 776.455C110.11 775.548 114.565 776.905 117.617 780.051L152.592 816.078" stroke="#FEFEFE" stroke-width="6" stroke-linecap="round"/>
<path d="M-142.627 581.733C-145.872 537.198 -33.9824 461.39 22.3691 429.052C34.9619 425.646 63.0301 425.376 74.5628 451.555C88.9806 484.277 96.0649 517.153 67.765 596.225C39.4673 675.297 -11.2016 665.201 -57.5649 677.745C-103.931 690.289 -138.57 637.401 -142.627 581.733Z" fill="#35C69B"/>
<path d="M89.6011 469.528C108.559 460.356 116.57 437.716 107.496 418.96C98.421 400.205 75.6965 392.436 56.7391 401.608C37.7816 410.78 29.77 433.42 38.8446 452.176C47.9191 470.931 70.6436 478.701 89.6011 469.528Z" stroke="#F7AF1C" stroke-width="8" stroke-linejoin="round" stroke-dasharray="15 10"/>
<path d="M2124.99 316.748L1885.3 252.523C1869.79 248.368 1853.85 257.57 1849.7 273.075L1822.52 374.493C1818.37 389.998 1827.57 405.936 1843.08 410.091L2082.77 474.316C2098.27 478.471 2114.21 469.269 2118.37 453.764L2145.54 352.346C2149.69 336.841 2140.49 320.903 2124.99 316.748Z" fill="#E55511"/>
<path d="M1604.71 113.985L1722.14 300.776C1724.63 304.721 1729.7 306.133 1733.86 304.035L1803.76 268.799" stroke="#E55511" stroke-width="8" stroke-linecap="round" stroke-linejoin="round"/>
<path d="M1961.42 162.901L1740.45 275.619C1736.31 277.728 1731.25 276.361 1728.74 272.456L1543.72 -15.3236C1538.9 -22.827 1546.71 -32.0393 1554.9 -28.5079L1960.89 146.556C1967.92 149.584 1968.24 159.426 1961.42 162.901Z" fill="#F7AF1C"/> -->
<path d="M1684.98 892.588C1697.67 886.448 1703.03 871.291 1696.96 858.735C1690.88 846.179 1675.67 840.978 1662.98 847.118C1650.29 853.258 1644.92 868.415 1651 880.971C1657.07 893.527 1672.29 898.728 1684.98 892.588Z" stroke="#35C69B" stroke-width="5" stroke-linejoin="round" stroke-dasharray="15 10"/> -->
<path d="M1547 848V950M1496 899H1598M1510.94 862.938L1583.06 935.062M1583.06 862.938L1510.94 935.062" stroke="#0042C6" stroke-width="8" stroke-linecap="round"/> -->
<path d="M1837.27 642.608L1829.25 686.263C1828.75 688.956 1825.51 690.123 1823.42 688.355L1789.54 659.796C1787.44 658.029 1788.07 654.666 1790.65 653.728L1832.56 638.632C1835.15 637.706 1837.76 639.902 1837.27 642.608Z" stroke="#F7AF1C" stroke-width="5" stroke-linecap="round" stroke-linejoin="round"/> -->
<path d="M1649 975C1649 949.181 1671.87 929.362 1697.4 933.058L1719.94 936.322C1759.63 942.068 1794.27 909.192 1790.63 869.218L1786.06 818.952C1784.41 800.761 1798.72 785.076 1816.97 785.076C1834.11 785.076 1848 771.169 1848 754.015V742" stroke="#0042C6" stroke-width="7" stroke-linecap="round" stroke-linejoin="round"/> -->
<path d="M115.516 241C128.79 251.317 129.839 270.994 117.737 282.642L107.053 292.926C88.2392 311.034 91.302 341.975 113.304 356.079L140.972 373.814C150.985 380.233 153.33 393.857 146.038 403.239C139.189 412.05 140.787 424.75 149.606 431.604L155.782 436.405" stroke="#E55511" stroke-width="7" stroke-linecap="round" stroke-linejoin="round"/> -->
<path d="M223 560V574M223 616V605.5M195 588H207.6M251 588H240.15M203.201 568.201L213.1 578.1M242.799 607.799L232.899 597.899M242.799 568.201L232.899 578.1M203.201 607.799L213.1 597.899" stroke="#35C69B" stroke-width="6" stroke-linecap="round"/>
<path d="M302.522 656L296.511 684M278.478 768L282.986 747M234 700.084L259.425 705.446M347 723.915L325.106 719.298M259.049 663.976L274.775 687.988M321.951 760.023L306.225 736.011M338.952 680.827L314.726 696.414M242.047 743.172L266.274 727.586" stroke="#E55511" stroke-width="10" stroke-linecap="round"/> -->
<path d="M1853.9 950L1857.7 963.75M1869.1 1005L1866.25 994.688M1834 985.102L1846.37 981.681M1889 969.898L1878.34 972.844M1836.68 963.43L1849.09 970.465M1886.32 991.57L1873.91 984.535M1875.57 952.679L1868.53 965.09M1847.43 1002.32L1854.46 989.91" stroke="white" stroke-width="6" stroke-linecap="round"/>
<path d="M584.291 880.211L636.028 922.515C639.218 925.129 638.404 930.244 634.551 931.721L572.261 955.639C568.408 957.116 564.426 953.85 565.069 949.759L575.622 883.536C576.285 879.445 581.08 877.598 584.291 880.211Z" stroke="#0042C6" stroke-width="10" stroke-linecap="round" stroke-linejoin="round"/>
<path d="M1541.7 1006.56L1672 1066.42C1680.03 1070.12 1681.11 1081.18 1673.91 1086.33L1557.52 1169.68C1550.32 1174.83 1540.29 1170.2 1539.41 1161.36L1525.5 1018.15C1524.67 1009.3 1533.62 1002.87 1541.7 1006.56Z" stroke="#F7AF1C" stroke-width="10" stroke-linecap="round" stroke-linejoin="round"/>
<path d="M75.8659 949.119C76.4713 946.839 78.8047 945.488 81.0772 946.102L111.248 954.251C113.519 954.865 114.87 957.21 114.265 959.49L105.852 991.138C105.245 993.418 102.912 994.77 100.641 994.155L70.4702 986.006C68.198 985.393 66.8481 983.047 67.4534 980.767L75.8659 949.119Z" fill="white"/>
<path d="M1821.5 428C1803.55 428 1789 413.449 1789 395.5C1789 377.551 1803.55 363 1821.5 363C1839.45 363 1854 377.551 1854 395.5C1854 413.449 1839.45 428 1821.5 428Z" stroke="#0042C6" stroke-width="5" stroke-linejoin="round" stroke-dasharray="15 10"/>
<path d="M1577.52 464.027C1576.53 461.13 1578.07 457.985 1580.96 457.004L1619.4 443.973C1622.29 442.992 1625.45 444.545 1626.44 447.442L1640.26 487.661C1641.25 490.559 1639.71 493.705 1636.82 494.684L1598.38 507.716C1595.49 508.698 1592.34 507.144 1591.34 504.247L1577.52 464.027Z" fill="#35C69B"/>
<path d="M979.866 636.119C980.471 633.839 982.805 632.488 985.077 633.102L1015.25 641.251C1017.52 641.864 1018.87 644.21 1018.26 646.49L1009.85 678.138C1009.25 680.418 1006.91 681.77 1004.64 681.155L974.47 673.006C972.198 672.393 970.848 670.047 971.453 667.767L979.866 636.119Z" fill="#E55511"/>
<path d="M1491.2 374L1497.35 396.25M1515.8 463L1511.19 446.313M1459 430.801L1479.02 425.266M1548 406.199L1530.76 410.966M1463.34 395.732L1483.42 407.116M1543.66 441.268L1523.58 429.884M1526.27 378.336L1514.88 398.418M1480.73 458.665L1492.12 438.582" stroke="#F7AF1C" stroke-width="8" stroke-linecap="round"/>
<path d="M1475.5 802C1457.55 802 1443 787.449 1443 769.5C1443 751.551 1457.55 737 1475.5 737C1493.45 737 1508 751.551 1508 769.5C1508 787.449 1493.45 802 1475.5 802Z" stroke="#E55511" stroke-width="5" stroke-linejoin="round" stroke-dasharray="15 10"/>
</svg>
