<svg width="432" height="429" viewBox="0 0 432 429" fill="none" xmlns="http://www.w3.org/2000/svg">
<path d="M238.91 29.4889L206.242 48.3499" stroke="#FEFEFE" stroke-width="3" stroke-linecap="round"/>
<path d="M244.6 69.9695H206.6" stroke="#FEFEFE" stroke-width="3" stroke-linecap="round"/>
<path d="M205.861 2L187 34.6682" stroke="#FEFEFE" stroke-width="3" stroke-linecap="round"/>
<path d="M159.185 40.5497C113.65 26.3598 72.3933 113.112 57.457 158.261C47.6237 187.479 57.4569 274.5 17.9573 293.5C-34.2481 318.612 39.4572 429 85.4572 429C131.457 429 139.653 378 175.457 367.5C211.261 357 269.5 389.5 295.5 380.5C319.648 372.141 333.98 320.558 366.275 316.688C406.644 311.85 421.176 272.748 379.193 251.785C337.21 230.823 374.349 213.086 325.907 200.186C277.465 187.286 258.088 219.536 211.261 213.086C164.433 206.636 216.105 58.287 159.185 40.5497Z" fill="#35C69B"/>
<path d="M357.007 230.738C396.934 180.283 419.069 139.748 409.429 130.823C396.41 118.771 330.372 168.932 261.928 242.862C193.485 316.792 148.554 386.494 161.572 398.547C172 408.201 217.933 376.545 225.626 368.757" stroke="#FEFEFE" stroke-width="3" stroke-linecap="round"/>
</svg>
