<svg width="403" height="300" viewBox="0 0 403 300" fill="none" xmlns="http://www.w3.org/2000/svg">
<path d="M263.349 122.546L271.747 158.172C272.254 160.323 274.408 161.655 276.558 161.148L312.185 152.75C314.335 152.243 315.667 150.089 315.16 147.938L306.762 112.312C306.255 110.162 304.101 108.83 301.951 109.336L266.324 117.735C264.174 118.242 262.842 120.396 263.349 122.546Z" fill="#0042C6"/>
<circle cx="360.5" cy="148.5" r="30" stroke="#E55511" stroke-width="3" stroke-linejoin="round" stroke-dasharray="10 5"/>
<path d="M152.53 84.2891C152.111 87.0626 151.15 89.7264 149.702 92.1284L139.964 108.279C139.251 109.461 137.714 109.842 136.532 109.129L104.231 89.6532C103.049 88.9402 102.668 87.4038 103.381 86.2214L113.119 70.0709C114.567 67.6689 116.475 65.5756 118.732 63.9106C120.989 62.2457 123.552 61.0416 126.275 60.3672C128.998 59.6929 131.826 59.5613 134.6 59.9801C137.373 60.399 140.037 61.36 142.439 62.8083C144.841 64.2566 146.934 66.1639 148.599 68.4212C150.264 70.6785 151.468 73.2416 152.143 75.9643C152.817 78.6869 152.949 81.5157 152.53 84.2891Z" stroke="#F7AF1C" stroke-width="3" stroke-linecap="round" stroke-linejoin="round"/>
<path fill-rule="evenodd" clip-rule="evenodd" d="M116.728 114.877C116.183 115.039 115.659 115.309 115.189 115.69L113.458 117.095L114.863 118.827L116.595 117.422C116.833 117.228 117.094 117.095 117.363 117.015L116.728 114.877ZM89.2145 136.77L90.6198 138.501L88.8882 139.907C88.6502 140.1 88.4657 140.327 88.3319 140.575L86.3704 139.514C86.6413 139.013 87.0133 138.556 87.4828 138.175L89.2145 136.77ZM107.91 170.424L109.642 169.018L111.047 170.75C111.24 170.988 111.468 171.173 111.715 171.306L110.654 173.268C110.153 172.997 109.696 172.625 109.315 172.155L107.91 170.424ZM141.564 151.728L140.159 149.997L141.89 148.591C142.128 148.398 142.313 148.171 142.447 147.923L144.408 148.984C144.137 149.485 143.765 149.942 143.296 150.323L141.564 151.728ZM122.869 118.074L121.137 119.48L119.732 117.748C119.539 117.51 119.311 117.325 119.063 117.192L120.125 115.23C120.625 115.501 121.082 115.873 121.463 116.343L122.869 118.074ZM125.679 121.538L123.948 122.943L126.758 126.406L128.49 125.001L125.679 121.538ZM131.301 128.464L129.569 129.869L132.38 133.333L134.111 131.927L131.301 128.464ZM136.922 135.391L135.19 136.796L138.001 140.259L139.732 138.854L136.922 135.391ZM142.543 142.317L140.811 143.723L142.217 145.454C142.41 145.692 142.544 145.953 142.624 146.223L144.762 145.588C144.599 145.042 144.33 144.519 143.948 144.049L142.543 142.317ZM138.101 154.539L136.695 152.807L133.232 155.618L134.637 157.35L138.101 154.539ZM131.174 160.16L129.769 158.429L126.306 161.239L127.711 162.971L131.174 160.16ZM124.248 165.782L122.842 164.05L119.379 166.861L120.784 168.592L124.248 165.782ZM117.321 171.403L115.916 169.671L114.184 171.076C113.946 171.27 113.685 171.403 113.415 171.483L114.05 173.621C114.596 173.459 115.12 173.189 115.589 172.808L117.321 171.403ZM105.099 166.96L106.831 165.555L104.02 162.092L102.289 163.497L105.099 166.96ZM99.478 160.034L101.21 158.629L98.3991 155.165L96.6674 156.571L99.478 160.034ZM93.8568 153.107L95.5884 151.702L92.7778 148.239L91.0461 149.644L93.8568 153.107ZM88.2355 146.181L89.9671 144.775L88.5618 143.044C88.3687 142.806 88.2351 142.545 88.155 142.275L86.0171 142.91C86.1791 143.456 86.4491 143.979 86.8302 144.449L88.2355 146.181ZM92.6778 133.959L94.0831 135.691L97.5465 132.88L96.1411 131.148L92.6778 133.959ZM99.6045 128.338L101.01 130.069L104.473 127.259L103.068 125.527L99.6045 128.338ZM106.531 122.716L107.936 124.448L111.4 121.637L109.994 119.906L106.531 122.716Z" fill="#0042C6"/>
<path d="M195 58H163C160.791 58 159 59.7909 159 62V94C159 96.2091 160.791 98 163 98H195C197.209 98 199 96.2091 199 94V62C199 59.7909 197.209 58 195 58Z" fill="#FEFEFE"/>
<path d="M224.165 79.1637L253.571 57.3672C254.68 56.545 256.246 56.7777 257.068 57.8869L278.865 87.2925C279.687 88.4018 279.454 89.9675 278.345 90.7897L248.939 112.586C247.83 113.408 246.264 113.176 245.442 112.066L223.646 82.6608C222.823 81.5516 223.056 79.9859 224.165 79.1637Z" stroke="#E55511" stroke-width="3"/>
<path d="M66.3349 82.75C67.2972 81.0833 69.7028 81.0833 70.6651 82.75L91.0167 118C91.9789 119.667 90.7761 121.75 88.8516 121.75H48.1484C46.2239 121.75 45.0211 119.667 45.9833 118L66.3349 82.75Z" stroke="#35C69B" stroke-width="3" stroke-linecap="round" stroke-linejoin="round"/>
<path d="M168.945 104.236C167.899 101.34 170.38 98.3974 173.411 98.9396L213.005 106.021C216.036 106.563 217.343 110.184 215.358 112.537L189.429 143.286C187.444 145.64 183.655 144.962 182.609 142.066L168.945 104.236Z" fill="#F7AF1C"/>
<path d="M303 9L285 40.1769" stroke="#FEFEFE" stroke-width="3" stroke-linecap="round"/>
<path d="M325.177 33L294 51" stroke="#FEFEFE" stroke-width="3" stroke-linecap="round"/>
<path d="M271 2V38" stroke="#FEFEFE" stroke-width="3" stroke-linecap="round"/>
<path d="M304.665 186.433L266.825 266.746C266.119 268.245 266.761 270.033 268.26 270.739L303.181 287.192C304.68 287.898 306.468 287.256 307.174 285.757L345.014 205.443C345.72 203.944 345.077 202.157 343.578 201.451L308.657 184.998C307.159 184.291 305.371 184.934 304.665 186.433Z" fill="#0042C6"/>
<ellipse cx="47" cy="175.5" rx="31" ry="31.5" fill="#F7AF1C"/>
<path d="M107.291 244.048L83.671 216.086C82.2455 214.398 79.7218 214.186 78.0341 215.611L50.0721 239.231C48.3845 240.657 48.172 243.18 49.5976 244.868L73.2175 272.83C74.6431 274.518 77.1668 274.73 78.8544 273.305L106.816 249.685C108.504 248.259 108.717 245.735 107.291 244.048Z" fill="#E55511"/>
<path fill-rule="evenodd" clip-rule="evenodd" d="M242.996 135.525C242.143 133.487 239.8 132.527 237.762 133.38L110.011 186.839C107.973 187.692 107.012 190.035 107.865 192.073L141.297 271.965C142.15 274.003 144.493 274.964 146.531 274.111L185.603 257.761C187.64 256.908 188.601 254.565 187.748 252.527L180.457 235.103C179.297 232.33 178.694 229.356 178.683 226.35C178.672 223.344 179.253 220.366 180.393 217.585C181.534 214.804 183.21 212.275 185.328 210.141C187.446 208.008 189.963 206.313 192.735 205.153C195.508 203.993 198.482 203.39 201.488 203.379C204.494 203.368 207.472 203.949 210.253 205.09C213.034 206.23 215.564 207.906 217.697 210.024C219.83 212.142 221.525 214.659 222.685 217.432L229.977 234.856C230.83 236.894 233.173 237.854 235.211 237.002L274.282 220.652C276.32 219.799 277.281 217.455 276.428 215.418L242.996 135.525Z" fill="#F7AF1C"/>
<path d="M348.292 20.328L338.561 64.8936" stroke="#35C69B" stroke-width="3" stroke-linecap="round"/>
<path d="M379.514 37.0542L349.407 73.9994" stroke="#35C69B" stroke-width="3" stroke-linecap="round"/>
<path d="M400.701 59.3557L359.887 82.4954" stroke="#35C69B" stroke-width="3" stroke-linecap="round"/>
</svg>
