<svg width="284" height="171" viewBox="0 0 284 171" fill="none" xmlns="http://www.w3.org/2000/svg">
<path d="M164.22 72.7637C167.194 71.9668 169.916 74.6884 169.119 77.6627L161.946 104.431C161.149 107.405 157.431 108.402 155.254 106.224L135.658 86.6284C133.481 84.4511 134.477 80.7333 137.451 79.9363L164.22 72.7637Z" fill="#F7AF1C"/>
<path d="M262.799 97.3481C263.213 96.6306 264.131 96.3848 264.848 96.799L280.437 105.799C281.154 106.213 281.4 107.131 280.986 107.848L271.986 123.437C271.571 124.154 270.654 124.4 269.937 123.986L254.348 114.986C253.631 114.571 253.385 113.654 253.799 112.937L262.799 97.3481Z" stroke="#0042C6" stroke-width="3"/>
<path d="M29.8564 83L13.8564 110.713M8 88.8564L35.7128 104.856M17.7153 81.4016L25.9975 112.311M37.3112 92.7153L6.40158 100.997" stroke="#35C69B" stroke-width="3" stroke-linecap="round"/>
<circle cx="139" cy="19" r="17.5" stroke="#242424" stroke-width="3" stroke-linejoin="round" stroke-dasharray="10 5"/>
<path d="M85.8517 133.306L73.2403 163.786M64.3056 142.24L94.7864 154.852" stroke="#E55511" stroke-width="3" stroke-linecap="round"/>
</svg>
