<svg width="227" height="161" viewBox="0 0 227 161" fill="none" xmlns="http://www.w3.org/2000/svg">
<path d="M115.374 25.1566C114.67 26.8551 113.639 28.3985 112.339 29.6985L103.854 38.1838C103.073 38.9648 101.806 38.9648 101.025 38.1838L84.0549 21.2132C83.2738 20.4322 83.2738 19.1658 84.0549 18.3848L92.5401 9.89949C93.8401 8.59949 95.3835 7.56822 97.0821 6.86468C98.7806 6.16114 100.601 5.79901 102.44 5.79901C104.278 5.79901 106.099 6.16114 107.797 6.86468C109.496 7.56822 111.039 8.59949 112.339 9.89949C113.639 11.1995 114.67 12.7429 115.374 14.4414C116.077 16.14 116.44 17.9605 116.44 19.799C116.44 21.6375 116.077 23.458 115.374 25.1566Z" fill="#0042C6"/>
<circle cx="209" cy="64" r="18" fill="#F7AF1C"/>
<path d="M20 47V83M2 65H38M7.27206 52.2721L32.7279 77.7279M32.7279 52.2721L7.27205 77.7279" stroke="#E55511" stroke-width="3" stroke-linecap="round"/>
<path d="M78.0345 133H57C55.3431 133 54 134.343 54 136V158C54 159.657 55.3431 161 57 161H78.0345C79.6913 161 81.0345 159.657 81.0345 158V136C81.0345 134.343 79.6913 133 78.0345 133Z" fill="#35C69B"/>
<path d="M111.806 67.0531C112.111 65.1529 114.359 64.295 115.852 65.5089L137.356 82.9894C138.849 84.2033 138.469 86.5786 136.671 87.265L110.78 97.1479C108.982 97.8342 107.115 96.3168 107.42 94.4166L111.806 67.0531Z" stroke="#242424" stroke-width="3" stroke-linecap="round" stroke-linejoin="round"/>
</svg>
