<svg width="36" height="35" viewBox="0 0 36 35" fill="none" xmlns="http://www.w3.org/2000/svg">
<path d="M32.5151 19.8938C31.8642 21.4653 30.9101 22.8933 29.7073 24.0961L20.9017 32.9017C20.7064 33.0969 20.3898 33.0969 20.1945 32.9017L2.58329 15.2905C2.38803 15.0952 2.38803 14.7786 2.58329 14.5834L11.3889 5.77778C12.5917 4.57499 14.0197 3.62086 15.5912 2.96994C17.1627 2.319 18.8471 1.98396 20.5481 1.98396C22.2491 1.98396 23.9335 2.319 25.505 2.96994C27.0765 3.62086 28.5045 4.57499 29.7073 5.77778C30.9101 6.98057 31.8642 8.40852 32.5151 9.98003C33.1661 11.5516 33.5011 13.2359 33.5011 14.9369C33.5011 16.6379 33.1661 18.3223 32.5151 19.8938Z" stroke="#FEFEFE" stroke-width="3" stroke-linecap="round" stroke-linejoin="round"/>
</svg>
