<svg width="167" height="130" viewBox="0 0 167 130" fill="none" xmlns="http://www.w3.org/2000/svg">
<path d="M63.9032 10.2717L3.22098 87.0016C1.2619 89.4788 0.943541 92.8767 2.40837 95.6747L10.824 111.749C12.0678 114.125 14.4192 115.72 17.0866 115.996L145.266 129.283C149.233 129.694 152.897 127.12 153.856 123.248L164.497 80.2628C164.827 78.932 164.809 77.5388 164.445 76.2169L153.356 35.9387C152.627 33.2897 150.589 31.2003 147.959 30.4048L72.4944 7.57687C69.349 6.6254 65.9417 7.69419 63.9032 10.2717Z" fill="#E55511"/>
<path d="M70 2L151.107 26.1695C153.741 26.9543 155.788 29.0362 156.527 31.6831L165 62" stroke="#FEFEFE" stroke-width="3" stroke-linecap="round"/>
</svg>
