<svg width="255" height="490" viewBox="0 0 255 490" fill="none" xmlns="http://www.w3.org/2000/svg">
<path d="M21.3455 435.186L19.7525 442.673M14.9735 465.133L16.1683 459.518M3.18607 446.973L9.92412 448.407M33.1329 453.345L27.3307 452.111M9.82452 437.319L13.992 443.739M26.4945 463L22.327 456.58M31.0002 441.824L24.5798 445.992M5.31882 458.494L11.7392 454.327" stroke="#35C69B" stroke-width="3" stroke-linecap="round"/>
<path d="M94.5373 363V377M94.5373 419V408.5M67 391H79.3918M122.075 391H111.404M75.0655 371.201L84.8013 381.1M114.009 410.799L104.273 400.899M114.009 371.201L104.273 381.1M75.0654 410.799L84.8013 400.899" stroke="#F7AF1C" stroke-width="3" stroke-linecap="round"/>
<path d="M242.38 455.709L237.257 461.396M221.888 478.457L225.73 474.192M220.246 456.374L225.595 461.193M244.022 477.792L239.415 473.642M230.973 451.468L231.553 459.275M233.295 482.698L232.714 474.89M247.785 466.612L239.959 466.848M216.483 467.554L224.308 467.318" stroke="#FEFEFE" stroke-width="3" stroke-linecap="round"/>
<path d="M232.785 12L226.684 22.5669M208.381 54.2677L212.957 46.3425M199.798 21.1339L209.151 26.5339M241.368 45.1339L233.314 40.4839M214.514 9.70466L217.548 21.4192M226.652 56.563L223.617 44.8484M243.908 26.6752L232.245 29.9045M197.258 39.5925L208.921 36.3631" stroke="#E55511" stroke-width="3" stroke-linecap="round"/>
</svg>
