<svg width="100" height="100" viewBox="0 0 100 100" fill="none" xmlns="http://www.w3.org/2000/svg">
<path d="M19.6942 92V92C19.6942 85.1296 25.7856 79.856 32.5852 80.8396L38.5886 81.708C49.1594 83.2371 58.3831 74.4889 57.4151 63.852L56.1977 50.4765C55.7572 45.636 59.5684 41.4622 64.4289 41.4622V41.4622C68.9937 41.4622 72.6942 37.7617 72.6942 33.197V30" stroke="#0042C6" stroke-width="3" stroke-linecap="round" stroke-linejoin="round"/>
<path d="M39.1942 30V33.75M39.1942 45V42.1875M31.6942 37.5H35.0692M46.6942 37.5H43.7879M33.8909 32.1967L36.5425 34.8483M44.4975 42.8033L41.8458 40.1516M44.4975 32.1967L41.8458 34.8483M33.8909 42.8033L36.5425 40.1516" stroke="#35C69B" stroke-width="2" stroke-linecap="round"/>
<path d="M79.1298 34.1624L77.5368 41.6491M72.7578 64.1093L73.9525 58.4942M60.9704 45.9498L67.7084 47.3835M90.9172 52.3218L85.115 51.0872M67.6088 36.2951L71.7763 42.7155M84.2788 61.9765L80.1113 55.5561M88.7844 40.8008L82.3641 44.9683M63.1031 57.4708L69.5234 53.3033" stroke="#E55511" stroke-width="3" stroke-linecap="round"/>
<path d="M16.8042 57.2328L18.4357 63.1349M23.3303 80.8412L22.1067 76.4147M8.26304 72.3001L13.5749 70.8317M31.8715 65.774L27.2973 67.0384M9.41308 62.9975L14.7402 66.0173M30.7214 75.0765L25.3943 72.0568M26.1068 58.3829L23.087 63.7099M14.0277 79.6912L17.0475 74.3641" stroke="#F7AF1C" stroke-width="3" stroke-linecap="round"/>
</svg>
