<svg width="1209" height="417" viewBox="0 0 1209 417" fill="none" xmlns="http://www.w3.org/2000/svg">
<path d="M426.415 357.783C431.31 354.975 445.675 353.488 459.294 369.182C472.914 384.875 466.637 399.082 454.719 408.993C442.802 418.905 420.137 423.53 411.305 399.082C402.474 374.633 421.52 360.592 426.415 357.783Z" fill="#35C69B"/>
<path d="M63.9032 198.272L3.22098 275.002C1.2619 277.479 0.943541 280.877 2.40837 283.675L10.824 299.749C12.0678 302.125 14.4192 303.72 17.0866 303.996L145.266 317.283C149.233 317.694 152.897 315.12 153.856 311.248L164.497 268.263C164.827 266.932 164.809 265.539 164.445 264.217L153.356 223.939C152.627 221.29 150.589 219.2 147.959 218.405L72.4944 195.577C69.349 194.625 65.9417 195.694 63.9032 198.272Z" fill="#E55511"/>
<path d="M71 190L152.107 214.169C154.741 214.954 156.788 217.036 157.527 219.683L166 250" stroke="#0042C6" stroke-width="3" stroke-linecap="round"/>
<path d="M205.449 41.3909C211.764 25.5228 263.028 18.0639 287.871 16.3179C292.785 17.2423 302.515 21.8235 302.124 32.7538C301.636 46.4167 298.592 58.9111 275.626 81.4131C252.661 103.915 236.863 92.0029 218.771 88.5997C200.678 85.1965 197.555 61.2259 205.449 41.3909Z" fill="#35C69B"/>
<path d="M1002.37 203.833C1015 188.601 1060.36 158.181 1124.27 165.504C1188.18 172.827 1184.94 214.788 1157.92 258.375C1130.91 301.962 1062.14 354.777 1003.25 319.849C944.353 284.921 989.727 219.065 1002.37 203.833Z" fill="#F7AF1C"/>
<circle cx="285" cy="62" r="16.5" stroke="#F7AF1C" stroke-width="3" stroke-linejoin="round" stroke-dasharray="10 5"/>
<path d="M1015.76 128.938C1014.76 131.364 1013.28 133.569 1011.43 135.426L998.698 148.154C997.917 148.935 996.651 148.935 995.87 148.154L970.414 122.698C969.633 121.917 969.633 120.651 970.414 119.87L983.142 107.142C984.999 105.285 987.204 103.812 989.631 102.807C992.057 101.802 994.658 101.284 997.284 101.284C999.911 101.284 1002.51 101.802 1004.94 102.807C1007.36 103.812 1009.57 105.285 1011.43 107.142C1013.28 108.999 1014.76 111.204 1015.76 113.631C1016.77 116.057 1017.28 118.658 1017.28 121.284C1017.28 123.911 1016.77 126.511 1015.76 128.938Z" fill="#E55511"/>
<path d="M796 121V121C796 107.818 784.305 97.7038 771.261 99.6043L758.125 101.518C738.937 104.314 722.177 88.4443 723.922 69.1317L726.448 41.174C727.282 31.9499 720.018 24 710.756 24V24C702.054 24 695 16.9458 695 8.24397V2" stroke="#0042C6" stroke-width="3" stroke-linecap="round" stroke-linejoin="round"/>
<path d="M187.852 333.093L209.356 350.574C210.849 351.788 210.469 354.163 208.671 354.849L182.78 364.732C180.982 365.418 179.115 363.901 179.42 362.001L183.806 334.637C184.111 332.737 186.359 331.879 187.852 333.093Z" stroke="#F7AF1C" stroke-width="3" stroke-linecap="round" stroke-linejoin="round"/>
<path d="M924.68 312.225L908.231 348.686M898.225 322.231L934.686 338.68M909.38 311.749L923.531 349.162M935.162 323.38L897.749 337.53" stroke="#35C69B" stroke-width="3" stroke-linecap="round"/>
<path d="M814.264 57.5878L805.088 79.7646M798.588 64.0884L820.765 73.264" stroke="#F7AF1C" stroke-width="3" stroke-linecap="round"/>
</svg>
