<svg width="100" height="100" viewBox="0 0 100 100" fill="none" xmlns="http://www.w3.org/2000/svg">
<path d="M14 73H30C30.5523 73 31 73.4477 31 74V90C31 90.5523 30.5523 91 30 91H14C13.4477 91 13 90.5523 13 90V74C13 73.4477 13.4477 73 14 73Z" stroke="#35C69B" stroke-width="2"/>
<path d="M72 61V89C72 90.6569 73.3431 92 75 92H85C86.6569 92 88 90.6569 88 89V61C88 59.3431 86.6569 58 85 58H75C73.3431 58 72 59.3431 72 61Z" fill="#0042C6"/>
<circle cx="51" cy="75" r="15.5" stroke="#F7AF1C" stroke-width="3" stroke-linejoin="round" stroke-dasharray="10 5"/>
<path d="M31.2388 56.1732C31.7413 57.3864 32 58.6868 32 60L32 68C32 69.1046 31.1046 70 30 70H14C12.8954 70 12 69.1046 12 68L12 60C12 58.6868 12.2587 57.3864 12.7612 56.1732C13.2638 54.9599 14.0004 53.8575 14.9289 52.9289C15.8575 52.0004 16.9599 51.2638 18.1732 50.7612C19.3864 50.2587 20.6868 50 22 50C23.3132 50 24.6136 50.2587 25.8268 50.7612C27.0401 51.2638 28.1425 52.0004 29.0711 52.9289C29.9996 53.8575 30.7362 54.9599 31.2388 56.1732Z" fill="#E55511"/>
<path d="M78.634 37.5C79.0189 36.8333 79.9811 36.8333 80.366 37.5L90.3253 54.75C90.7102 55.4167 90.2291 56.25 89.4593 56.25H69.5407C68.7709 56.25 68.2898 55.4167 68.6747 54.75L78.634 37.5Z" stroke="#35C69B" stroke-width="2" stroke-linecap="round" stroke-linejoin="round"/>
</svg>
