<svg width="2135" height="1080" viewBox="0 0 2135 1080" fill="none" xmlns="http://www.w3.org/2000/svg">
<rect width="1920" height="1080" transform="translate(157)" fill="white"/>
<path d="M1532.11 191.066L1514.35 150.39C1513.25 147.879 1515.28 145.101 1518.01 145.395L1562.07 150.126C1564.79 150.42 1566.16 153.556 1564.54 155.779L1538.24 191.727C1536.61 193.944 1533.22 193.584 1532.11 191.066Z" stroke="#F7AF1C" stroke-width="5" stroke-linecap="round" stroke-linejoin="round"/>
<path d="M2105.66 354.758L2097.86 335.294M2074.45 276.901L2080.3 291.5M2129.34 299.856L2111.66 307.044M2050.77 331.804L2065.99 325.614M2128.87 332.061L2109.46 323.945M2051.24 299.599L2070.65 307.714M2073.31 354.652L2081.68 335.241M2106.8 277.008L2098.42 296.419" stroke="#E55511" stroke-width="10" stroke-linecap="round"/>
<path d="M344.856 669.133L334.016 659.859M301.496 632.037L309.626 638.993M341.724 628.905L333.377 638.661M304.628 672.265L311.816 663.864M351.621 648.37L337.399 649.478M294.731 652.8L308.954 651.692M325.391 679.03L324.284 664.808M320.961 622.14L322.069 636.362" stroke="white" stroke-width="6" stroke-linecap="round"/>
<path d="M1884.77 297.234L1818.22 291.093C1814.11 290.71 1811.93 286.014 1814.3 282.635L1852.56 227.975C1854.93 224.596 1860.06 225.077 1861.81 228.827L1890.1 289.63C1891.83 293.392 1888.89 297.605 1884.77 297.234Z" stroke="#0042C6" stroke-width="6" stroke-linecap="round" stroke-linejoin="round"/>
<path d="M1640.94 309.174C1655.82 299.137 1676.02 303.063 1686.06 317.944C1696.1 332.824 1692.17 353.024 1677.29 363.061C1662.41 373.098 1642.21 369.172 1632.17 354.291C1622.14 339.411 1626.06 319.211 1640.94 309.174Z" stroke="#0042C6" stroke-width="5" stroke-linejoin="round" stroke-dasharray="15 10"/>
<path d="M1355.94 962.174C1370.82 952.137 1391.02 956.063 1401.06 970.944C1411.1 985.824 1407.17 1006.02 1392.29 1016.06C1377.41 1026.1 1357.21 1022.17 1347.17 1007.29C1337.14 992.411 1341.06 972.211 1355.94 962.174Z" stroke="#0042C6" stroke-width="5" stroke-linejoin="round" stroke-dasharray="15 10"/>
<path d="M1845.13 495.424C1848.09 497.659 1848.68 501.861 1846.43 504.807L1816.66 543.935C1814.42 546.88 1810.2 547.457 1807.23 545.222L1766.11 514.186C1763.15 511.949 1762.56 507.747 1764.81 504.802L1794.58 465.675C1796.82 462.728 1801.04 462.153 1804.01 464.388L1845.13 495.424Z" fill="#35C69B"/>
<path d="M1992.83 527.363L1971.57 509.182M1907.82 454.64L1923.76 468.275M1986.68 448.499L1970.32 467.625M1913.96 533.504L1928.05 517.034M2006.09 486.659L1978.21 488.83M1894.56 495.344L1922.44 493.172M1954.67 546.767L1952.49 518.884M1945.98 435.236L1948.15 463.119" stroke="#F7AF1C" stroke-width="8" stroke-linecap="round"/>
<path d="M1718.64 86.8494C1736.66 74.6893 1761.14 79.4462 1773.3 97.4742C1785.46 115.502 1780.7 139.975 1762.67 152.135C1744.64 164.295 1720.17 159.538 1708.01 141.51C1695.85 123.482 1700.61 99.0094 1718.64 86.8494Z" stroke="#E55511" stroke-width="5" stroke-linejoin="round" stroke-dasharray="15 10"/>
<path d="M233.187 212.528C252.145 203.356 260.157 180.716 251.082 161.96C242.007 143.205 219.283 135.436 200.326 144.608C181.368 153.78 173.356 176.42 182.431 195.176C191.506 213.931 214.23 221.701 233.187 212.528Z" stroke="#F7AF1C" stroke-width="8" stroke-linejoin="round" stroke-dasharray="15 10"/>
<path d="M230.979 690.588C243.67 684.448 249.034 669.291 242.959 656.735C236.884 644.179 221.671 638.978 208.979 645.118C196.288 651.259 190.925 666.415 197 678.971C203.075 691.527 218.288 696.729 230.979 690.588Z" stroke="#35C69B" stroke-width="5" stroke-linejoin="round" stroke-dasharray="15 10"/>
<path d="M323 489V591M272 540H374M286.938 503.938L359.062 576.062M359.062 503.938L286.938 576.062" stroke="#0042C6" stroke-width="8" stroke-linecap="round"/>
<path d="M746.27 727.608L738.249 771.263C737.751 773.956 734.515 775.123 732.421 773.355L698.538 744.796C696.444 743.029 697.067 739.666 699.653 738.728L741.557 723.632C744.149 722.706 746.761 724.902 746.27 727.608Z" stroke="#F7AF1C" stroke-width="5" stroke-linecap="round" stroke-linejoin="round"/>
<path d="M218 332V346M218 388V377.5M190 360H202.6M246 360H235.15M198.201 340.201L208.1 350.1M237.799 379.799L227.899 369.899M237.799 340.201L227.899 350.1M198.201 379.799L208.1 369.899" stroke="#35C69B" stroke-width="6" stroke-linecap="round"/>
<path d="M373.33 240L368.915 260.5M355.67 322L358.981 306.625M323 272.276L341.675 276.202M406 289.724L389.919 286.343M341.399 245.84L352.949 263.42M387.601 316.16L376.051 298.58M400.089 258.177L382.294 269.588M328.911 303.823L346.705 292.411" stroke="#E55511" stroke-width="8" stroke-linecap="round"/>
<path d="M856.33 947L851.915 967.5M838.67 1029L841.981 1013.62M806 979.276L824.675 983.202M889 996.724L872.919 993.343M824.399 952.84L835.949 970.42M870.601 1023.16L859.051 1005.58M883.089 965.177L865.294 976.588M811.911 1010.82L829.705 999.411" stroke="#E55511" stroke-width="8" stroke-linecap="round"/>
<path d="M2008.9 964L2012.7 977.75M2024.1 1019L2021.25 1008.69M1989 999.102L2001.37 995.681M2044 983.898L2033.34 986.844M1991.68 977.43L2004.09 984.465M2041.32 1005.57L2028.91 998.535M2030.57 966.679L2023.53 979.09M2002.43 1016.32L2009.46 1003.91" stroke="white" stroke-width="6" stroke-linecap="round"/>
<path d="M524.291 411.211L576.028 453.515C579.218 456.129 578.404 461.244 574.551 462.721L512.261 486.639C508.408 488.116 504.426 484.85 505.069 480.759L515.622 414.536C516.285 410.445 521.08 408.598 524.291 411.211Z" stroke="#0042C6" stroke-width="6" stroke-linecap="round" stroke-linejoin="round"/>
<path d="M230.866 963.119C231.471 960.839 233.805 959.488 236.077 960.102L266.248 968.251C268.519 968.864 269.87 971.21 269.265 973.49L260.852 1005.14C260.245 1007.42 257.912 1008.77 255.641 1008.15L225.47 1000.01C223.198 999.393 221.848 997.047 222.453 994.767L230.866 963.119Z" fill="white"/>
<path d="M730.5 513C712.551 513 698 498.449 698 480.5C698 462.551 712.551 448 730.5 448C748.449 448 763 462.551 763 480.5C763 498.449 748.449 513 730.5 513Z" stroke="#0042C6" stroke-width="5" stroke-linejoin="round" stroke-dasharray="15 10"/>
<path d="M667.978 269.069C666.771 265.559 668.636 261.749 672.144 260.561L718.709 244.773C722.214 243.585 726.036 245.466 727.242 248.976L743.98 297.702C745.185 301.213 743.32 305.024 739.814 306.21L693.249 321.998C689.742 323.188 685.922 321.305 684.716 317.795L667.978 269.069Z" fill="#35C69B"/>
<path d="M364.02 754.647C362.813 751.138 364.678 747.327 368.186 746.139L414.751 730.351C418.256 729.163 422.078 731.044 423.284 734.554L440.022 783.28C441.227 786.791 439.362 790.602 435.856 791.788L389.291 807.576C385.784 808.766 381.964 806.883 380.758 803.374L364.02 754.647Z" fill="#35C69B"/>
<path d="M563.393 160L570.844 186.956M593.199 267.825L587.611 247.608M524.384 228.816L548.644 222.109M632.208 199.009L611.317 204.784M529.636 186.329L553.966 200.121M626.956 241.496L602.626 227.704M605.88 165.253L592.088 189.582M550.712 262.572L564.504 238.242" stroke="#F7AF1C" stroke-width="8" stroke-linecap="round"/>
<path d="M544.374 678.527C522.628 678.527 505 660.899 505 639.153C505 617.407 522.628 599.779 544.374 599.779C566.12 599.779 583.748 617.407 583.748 639.153C583.748 660.899 566.12 678.527 544.374 678.527Z" stroke="#E55511" stroke-width="5" stroke-linejoin="round" stroke-dasharray="15 10"/>
<path d="M1823.12 729.75C1834.32 711.11 1858.51 705.079 1877.15 716.279C1895.78 727.479 1901.82 751.669 1890.62 770.308C1879.42 788.948 1855.23 794.979 1836.59 783.779C1817.95 772.58 1811.92 748.39 1823.12 729.75Z" stroke="#E55511" stroke-width="5" stroke-linejoin="round" stroke-dasharray="15 10"/>
<path d="M882.509 100.482L811.545 133.573M830.482 81.5455L863.573 152.51M860.418 80.2387L833.637 153.816M883.816 130.417L810.239 103.638" stroke="#E55511" stroke-width="6" stroke-linecap="round"/>
<path d="M528.998 939.222L436.554 982.329M461.223 914.554L504.33 1007M500.219 912.851L465.333 1008.7M530.7 978.218L434.852 943.332" stroke="#0042C6" stroke-width="8" stroke-linecap="round"/>
<path d="M2011 878.222L1918.55 921.329M1943.22 853.554L1986.33 945.997M1982.22 851.851L1947.33 947.699M2012.7 917.218L1916.85 882.332" stroke="#0042C6" stroke-width="8" stroke-linecap="round"/>
<path d="M1329.06 140.66L1317.47 186.224C1316.75 189.035 1313.25 190.037 1311.16 188.02L1277.39 155.415C1275.3 153.398 1276.2 149.888 1279 149.081L1324.36 136.121C1327.17 135.328 1329.77 137.835 1329.06 140.66Z" stroke="#35C69B" stroke-width="6" stroke-linecap="round" stroke-linejoin="round"/>
<path d="M520.059 232.725C522.381 232.31 524.592 233.854 524.996 236.173L530.361 266.961C530.765 269.279 529.21 271.495 526.888 271.91L494.65 277.66C492.327 278.074 490.116 276.53 489.713 274.212L484.348 243.424C483.943 241.106 485.499 238.891 487.821 238.476L520.059 232.725Z" fill="white"/>
<path d="M1908.59 1005.38L1895.9 1011.29M1857.83 1029.04L1867.35 1024.61M1871.38 991.833L1876.7 1003.25M1895.04 1042.59L1890.46 1032.75M1892.79 990.899L1888 1004.05M1873.63 1043.52L1878.42 1030.37M1909.52 1026.79L1896.36 1022M1856.9 1007.63L1870.05 1012.42" stroke="#35C69B" stroke-width="6" stroke-linecap="round"/>
<path d="M686.586 903.377L673.898 909.293M635.833 927.043L645.349 922.606M649.376 889.833L654.701 901.253M673.043 940.587L668.457 930.753M670.786 888.899L665.998 902.054M651.633 941.521L656.421 928.365M687.521 924.787L674.365 919.998M634.898 905.633L648.054 910.421" stroke="#35C69B" stroke-width="6" stroke-linecap="round"/>
<path d="M1672.59 595.615L1652.14 600.277M1590.81 614.264L1606.14 610.767M1622.07 563.64L1626.4 582.225M1641.33 646.238L1637.6 630.234M1653.8 569.143L1642.75 587.041M1609.59 640.735L1620.65 622.837M1667.42 627.548L1649.56 616.244M1595.97 582.33L1613.83 593.634" stroke="#E55511" stroke-width="8" stroke-linecap="round"/>
<path d="M226.586 826.615L206.141 831.277M144.805 845.264L160.139 841.767M176.063 794.641L180.398 813.225M195.328 877.238L191.595 861.235M207.799 800.144L196.747 818.042M163.593 871.736L174.644 853.838M221.42 858.549L203.558 847.244M149.971 813.33L167.833 824.635" stroke="#E55511" stroke-width="8" stroke-linecap="round"/>
<path d="M1728.62 978.626C1731.29 976.049 1735.54 976.129 1738.09 978.806L1772.08 1014.34C1774.64 1017.01 1774.55 1021.27 1771.88 1023.85L1734.79 1059.61C1732.12 1062.18 1727.88 1062.1 1725.32 1059.43L1691.33 1023.9C1688.77 1021.22 1688.86 1016.97 1691.54 1014.39L1728.62 978.626Z" fill="#35C69B"/>
<path d="M1701.38 832.021L1675.01 841.334M1595.9 869.275L1615.68 862.29M1630.02 797.907L1638.4 821.64M1667.27 903.389L1660.05 882.952M1672.77 800.183L1660.7 825.416M1624.52 901.113L1636.58 875.881M1699.11 874.77L1673.88 862.709M1598.18 826.526L1623.41 838.587" stroke="#F7AF1C" stroke-width="8" stroke-linecap="round"/>
<path d="M1850 869C1850 844.621 1866.9 825.908 1885.75 829.399L1902.41 832.48C1931.72 837.906 1957.31 806.864 1954.62 769.12L1951.25 721.659C1950.02 704.483 1960.59 689.672 1974.08 689.672C1986.74 689.672 1997 676.542 1997 660.344V649" stroke="#0042C6" stroke-width="7" stroke-linecap="round" stroke-linejoin="round"/>
<path d="M3.99991 228.77C23.7787 212.173 53.6621 216.955 67.2412 238.888L79.2303 258.253C100.341 292.352 147.787 297.749 176.072 269.27L211.64 233.458C224.512 220.498 245.726 221.378 257.457 235.358C268.474 248.488 288.058 250.192 301.199 239.166L310.403 231.443" stroke="#0042C6" stroke-width="7" stroke-linecap="round" stroke-linejoin="round"/>
<path d="M373.102 882.73C373.396 899.539 358.731 912.701 342.069 910.584L327.357 908.716C301.453 905.426 279.28 927.222 282.1 953.205L285.647 985.877C286.931 997.7 277.793 1008.07 265.912 1008.28C254.754 1008.48 245.867 1017.69 246.062 1028.86L246.198 1036.68" stroke="#E55511" stroke-width="7" stroke-linecap="round" stroke-linejoin="round"/>
<path d="M2099.01 186.035C2097.25 202.755 2081.09 214.031 2064.81 209.9L2050.44 206.253C2025.13 199.83 2000.46 218.762 2000.1 244.895L1999.63 277.755C1999.47 289.647 1989.13 298.83 1977.32 297.588C1966.22 296.422 1956.27 304.481 1955.11 315.59L1954.29 323.37" stroke="#E55511" stroke-width="7" stroke-linecap="round" stroke-linejoin="round"/>
</svg>
